# xmcd
#
# Track frame offsets: 
#        150
#        13119
#        27058
#        41084
#        54741
#        69088
#        83109
#        98107
#        113138
#        127063
#        141380
#        155675
#        180159
#        193229
#        205328
#        220775
#        233488
#        245080
#        261010
#        272572
#        281560
#        293732
#        308756
#        322936
#        338791
#
# Disc length: 4645 seconds
#
# Revision: 0
# Processed by: cddbd v1.5.2PL0 Copyright (c) Steve Scherf et al.
# Submitted via: ExactAudioCopyFreeDBPlugin 1.0
#
DISCID=6b122319
DTITLE=Reverend Gary Davis - Hesitation Blues CD1 (Compilation Blues C
DTITLE=haracters)
DYEAR=1900
DGENRE=Blues
TTITLE0=I'm throwin' up my hand
TTITLE1=Cross and evil woman blues
TTITLE2=O Lord, search my heart
TTITLE3=I saw the light
TTITLE4=You can go home
TTITLE5=Have more faith in Jesus
TTITLE6=You got to go down
TTITLE7=The great change in me
TTITLE8=Lord, I wish I could see
TTITLE9=Lord, stand by me
TTITLE10=The Angel's message to me
TTITLE11=Civil war parade
TTITLE12=I can't bear my burden by myself
TTITLE13=I'm gonna meet you at the station
TTITLE14=We are the heavenly father's children
TTITLE15=Death is riding everyday
TTITLE16=Keep your lamps trimmed and burning
TTITLE17=Mountain Jack
TTITLE18=Candy man
TTITLE19=Devil's dream
TTITLE20=Cocaine blues
TTITLE21=Hesitation blues
TTITLE22=I didn't want to join the band
TTITLE23=Evening sun foes down
TTITLE24=My heart is fixxed
EXTD=
EXTT0=
EXTT1=
EXTT2=
EXTT3=
EXTT4=
EXTT5=
EXTT6=
EXTT7=
EXTT8=
EXTT9=
EXTT10=
EXTT11=
EXTT12=
EXTT13=
EXTT14=
EXTT15=
EXTT16=
EXTT17=
EXTT18=
EXTT19=
EXTT20=
EXTT21=
EXTT22=
EXTT23=
EXTT24=
PLAYORDER=
